<?xml version="1.0" encoding="UTF-8" standalone="no"?>
<svg
   xmlns:dc="http://purl.org/dc/elements/1.1/"
   xmlns:cc="http://creativecommons.org/ns#"
   xmlns:rdf="http://www.w3.org/1999/02/22-rdf-syntax-ns#"
   xmlns:svg="http://www.w3.org/2000/svg"
   xmlns="http://www.w3.org/2000/svg"
   xmlns:sodipodi="http://sodipodi.sourceforge.net/DTD/sodipodi-0.dtd"
   xmlns:inkscape="http://www.inkscape.org/namespaces/inkscape"
   width="511.51605mm"
   height="546.09985mm"
   viewBox="0 0 511.51604 546.09985"
   version="1.1"
   id="svg8"
   inkscape:version="1.0 (4035a4fb49, 2020-05-01)"
   sodipodi:docname="favicon.svg"
   inkscape:export-filename="/home/denys/gcg-website/static/images/logo_small.png"
   inkscape:export-xdpi="6.3098698"
   inkscape:export-ydpi="6.3098698">
  <defs
     id="defs2">
    <inkscape:path-effect
       effect="spiro"
       id="path-effect921"
       is_visible="true"
       lpeversion="1" />
    <inkscape:path-effect
       effect="spiro"
       id="path-effect917"
       is_visible="true"
       lpeversion="1" />
    <inkscape:path-effect
       effect="skeletal"
       id="path-effect885"
       is_visible="true"
       lpeversion="1"
       pattern="M 0,5 C 0,2.24 2.24,0 5,0 7.76,0 10,2.24 10,5 10,7.76 7.76,10 5,10 2.24,10 0,7.76 0,5 Z"
       copytype="single_stretched"
       prop_scale="1"
       scale_y_rel="false"
       spacing="0"
       normal_offset="0"
       tang_offset="0"
       prop_units="false"
       vertical_pattern="false"
       hide_knot="false"
       fuse_tolerance="0" />
    <inkscape:path-effect
       effect="skeletal"
       id="path-effect879"
       is_visible="true"
       lpeversion="1"
       pattern="M 0,5 C 0,2.24 2.24,0 5,0 7.76,0 10,2.24 10,5 10,7.76 7.76,10 5,10 2.24,10 0,7.76 0,5 Z"
       copytype="single_stretched"
       prop_scale="1"
       scale_y_rel="false"
       spacing="0"
       normal_offset="0"
       tang_offset="0"
       prop_units="false"
       vertical_pattern="false"
       hide_knot="false"
       fuse_tolerance="0" />
    <rect
       x="-576.46234"
       y="149.70718"
       width="1231.0178"
       height="630.59308"
       id="rect101" />
  </defs>
  <sodipodi:namedview
     id="base"
     pagecolor="#ffffff"
     bordercolor="#666666"
     borderopacity="1.0"
     inkscape:pageopacity="0.0"
     inkscape:pageshadow="2"
     inkscape:zoom="0.22627416"
     inkscape:cx="764.327"
     inkscape:cy="2017.0845"
     inkscape:document-units="mm"
     inkscape:current-layer="layer3"
     inkscape:document-rotation="0"
     showgrid="false"
     fit-margin-top="0"
     fit-margin-left="0"
     fit-margin-right="0"
     fit-margin-bottom="0"
     inkscape:window-width="1920"
     inkscape:window-height="1016"
     inkscape:window-x="0"
     inkscape:window-y="27"
     inkscape:window-maximized="1" />
  <metadata
     id="metadata5">
    <rdf:RDF>
      <cc:Work
         rdf:about="">
        <dc:format>image/svg+xml</dc:format>
        <dc:type
           rdf:resource="http://purl.org/dc/dcmitype/StillImage" />
        <dc:title></dc:title>
      </cc:Work>
    </rdf:RDF>
  </metadata>
  <g
     inkscape:label="Ebene 1"
     inkscape:groupmode="layer"
     id="layer1"
     transform="translate(834.86231,-168.27251)" />
  <g
     transform="translate(-207.78069,-19.681852)"
     inkscape:groupmode="layer"
     id="layer2"
     inkscape:label="Ebene 2" />
  <g
     inkscape:groupmode="layer"
     id="layer3"
     inkscape:label="Ebene 3"
     transform="translate(-56.667589,-15.035518)">
    <path
       id="path94"
       style="fill:#ffbc3b;stroke-width:0.758456;fill-opacity:1"
       d="m 320.53226,17.408628 c -16.97418,0.005 -33.52787,0.3574 -38.93586,1.05287 -27.06952,3.48105 -49.92353,11.27984 -76.98296,26.27011 C 161.2963,68.728298 123.42857,107.56679 96.810577,155.29761 63.360971,215.27906 51.130171,278.30243 61.229371,338.64238 c 6.361704,38.00888 18.269504,66.30142 44.094939,104.76796 8.62063,12.84021 12.83371,18.18613 26.51821,33.64969 15.86574,17.92841 29.88272,30.45512 45.73469,40.87248 31.28709,20.5608 62.54375,32.60008 103.59244,39.90023 v 0.001 c 6.3118,1.12252 12.28991,1.37047 34.55752,1.43539 31.73142,0.0927 45.50056,-0.86684 65.17685,-4.54357 30.96179,-5.78562 62.246,-18.17583 93.33935,-36.96624 36.24776,-21.90531 66.98239,-52.52651 88.28613,-87.96074 2.83758,-4.71972 5.03898,-8.67313 4.89188,-8.78527 -1.2689,-0.9684 -103.94215,-58.0997 -104.41344,-58.0997 -0.34109,0 -1.39922,1.38612 -2.35104,3.07963 -6.50697,11.5777 -25.36238,32.28159 -37.60913,41.29642 -41.65979,30.66578 -92.5572,38.87145 -140.6046,22.6691 C 234.16264,413.6777 196.5544,373.2251 184.12961,324.2096 c -3.52852,-13.91991 -4.41775,-21.42736 -4.44723,-37.52009 -0.0463,-26.07235 4.36777,-45.58617 15.29287,-67.61189 25.94986,-52.31678 77.94644,-84.5843 136.30016,-84.5843 40.87681,0 78.63116,15.54873 107.26349,44.17555 7.82836,7.82688 18.82071,21.77123 23.1647,29.38559 1.23754,2.16917 2.46259,3.85478 2.72235,3.74606 0.25973,-0.10891 23.22098,-12.94917 51.02477,-28.53377 32.76394,-18.36491 50.36929,-28.63975 50.03183,-29.20022 -16.52101,-27.44306 -40.65269,-55.325702 -65.45184,-75.625972 -21.17333,-17.33223 -49.77007,-33.94113 -76.17649,-44.24332 -23.64894,-9.22646 -41.50279,-13.7754 -61.86146,-15.7605 -7.0913,-0.69202 -24.48632,-1.03351 -41.4605,-1.02823 z M 397.51353,286.3088 c -35.94438,0 -65.15101,0.20282 -64.90355,0.45027 0.24755,0.24754 29.40091,17.29684 64.78483,37.88691 35.38397,20.59007 64.59011,37.45277 64.90301,37.4725 0.31302,0.0198 0.569,-17.02947 0.569,-37.88692 V 286.3088 Z"
       inkscape:export-xdpi="3.1874995"
       inkscape:export-ydpi="3.1874995" />
    <path
       style="fill:none;stroke:#000000;stroke-width:5;stroke-linecap:butt;stroke-linejoin:miter;stroke-miterlimit:4;stroke-dasharray:none;stroke-opacity:1"
       d="m 462.46071,362.2282 0.40611,-75.9194 -130.19008,0.31847 z"
       id="path845" />
    <path
       style="fill:none;stroke:#000000;stroke-width:5;stroke-linecap:butt;stroke-linejoin:miter;stroke-miterlimit:4;stroke-dasharray:none;stroke-opacity:1"
       d="M 464.21717,212.16917 565.416,154.59975"
       id="path871" />
    <path
       style="fill:none;stroke:#000000;stroke-width:5;stroke-linecap:butt;stroke-linejoin:miter;stroke-miterlimit:4;stroke-dasharray:none;stroke-opacity:1"
       d="M 567.74881,421.31191 462.4607,362.2282"
       id="path873" />
    <path
       style="fill:none;stroke:#000000;stroke-width:5;stroke-linecap:butt;stroke-linejoin:miter;stroke-miterlimit:4;stroke-dasharray:none;stroke-opacity:1"
       d="M 565.416,154.59975 C 531.60277,96.290797 475.95128,50.994214 411.99194,29.722836 393.10764,23.442361 373.54907,19.188632 353.76027,17.075667 322.93052,13.783794 291.50142,15.725759 261.44052,23.318695 224.61048,32.621418 189.95744,50.448806 160.99708,75.031128 123.58433,106.78807 96.142564,149.2937 78.278473,195.00028 61.938919,236.80622 53.274298,282.30882 58.86615,326.84474 c 4.488156,35.74562 18.01991,69.93591 36.052802,101.12417 17.709848,30.62954 40.094908,58.94493 68.214688,80.41783 22.16734,16.92748 47.58593,29.35829 74.11343,37.97352 52.50107,17.05057 109.95529,19.10387 163.23306,4.66215 69.9014,-18.9478 131.51528,-66.72702 167.26868,-129.7105"
       id="path915"
       inkscape:path-effect="#path-effect917"
       inkscape:original-d="M 565.416,154.59975 C 514.2749,112.97438 463.13354,71.348739 411.99194,29.722836 360.85031,-11.903065 373.17108,21.291655 353.76027,17.075667 334.34946,12.859679 292.21403,21.23795 261.44052,23.318695 230.667,25.399439 194.47849,57.793913 160.99708,75.031128 127.51567,92.26834 105.8516,155.01083 78.278473,195.00028 50.705339,234.98974 65.337189,282.89684 58.86615,326.84474 c -6.471036,43.94787 24.035467,67.41638 36.052802,101.12417 12.017338,33.70781 45.476728,53.61215 68.214688,80.41783 22.73796,26.80567 49.40922,25.31594 74.11343,37.97352 24.70422,12.65756 108.82232,3.10836 163.23306,4.66215 54.41077,1.55379 111.51272,-86.4734 167.26868,-129.7105" />
    <path
       style="fill:none;stroke:#000000;stroke-width:5;stroke-linecap:butt;stroke-linejoin:miter;stroke-miterlimit:4;stroke-dasharray:none;stroke-opacity:1"
       d="m 462.4607,362.2282 c -16.50191,28.59083 -42.53997,51.56743 -72.962,64.38339 -14.48944,6.104 -29.93244,9.95219 -45.598,11.29123 -41.55393,3.55188 -84.2185,-11.32822 -115.02282,-39.44297 -27.87832,-25.44422 -45.97339,-61.47567 -49.22161,-99.07963 -2.50393,-28.98741 3.7079,-58.64657 17.47282,-84.27988 12.83021,-23.89269 32.16374,-44.25214 55.36173,-58.29948 23.198,-14.04734 50.19867,-21.74516 77.31667,-22.04276 27.11801,-0.29761 54.28111,6.80578 77.78181,20.34063 23.5007,13.53484 43.27639,33.46509 56.62787,57.07044"
       id="path919"
       inkscape:path-effect="#path-effect921"
       inkscape:original-d="m 462.4607,362.2282 c -24.32042,21.31934 -48.64107,42.92251 -72.962,64.38339 -24.32092,21.46086 -30.3984,7.52774 -45.598,11.29123 -15.19962,3.76349 -76.68162,-26.29503 -115.02282,-39.44297 -38.3412,-13.14791 -32.81414,-66.05283 -49.22161,-99.07963 -16.40747,-33.02683 11.64881,-56.18632 17.47282,-84.27988 5.824,-28.09355 178.05899,-1.95385 267.08808,-2.93117" />
  </g>
</svg>
